<svg xmlns="http://www.w3.org/2000/svg" xmlns:xlink="http://www.w3.org/1999/xlink" width="600" zoomAndPan="magnify" viewBox="0 0 450 149.999998" height="200" preserveAspectRatio="xMidYMid meet" version="1.0"><defs><g/></defs><rect x="-45" width="540" fill="#1b1b1b" y="-15" height="179.999997" fill-opacity="1"/><rect x="-45" width="540" fill="#ffffff" y="-15" height="179.999997" fill-opacity="1"/><rect x="-45" width="540" fill="#1b1b1b" y="-15" height="179.999997" fill-opacity="1"/><g fill="#fcfcfc" fill-opacity="1"><g transform="translate(11.347659, 135.680341)"><g><path d="M 42.296875 -101.546875 L 20.84375 -100.796875 L 15 -68.09375 L 2.40625 -68.09375 L 4.953125 -111.453125 L 101.703125 -111.453125 L 103.5 -68.09375 L 91.65625 -68.09375 L 85.796875 -100.796875 L 64.65625 -101.546875 L 64.65625 -10.5 L 85.65625 -9 L 85.65625 0 L 23.09375 0 L 23.09375 -9 L 42.296875 -10.5 Z M 42.296875 -101.546875 "/></g></g></g><g fill="#fcfcfc" fill-opacity="1"><g transform="translate(118.147682, 135.680341)"><g><path d="M 5.09375 -23.40625 C 5.09375 -32.5 9.664062 -39.34375 18.8125 -43.9375 C 27.96875 -48.539062 39.796875 -50.894531 54.296875 -51 L 54.296875 -54.453125 C 54.296875 -58.546875 53.867188 -61.742188 53.015625 -64.046875 C 52.171875 -66.347656 50.625 -68.070312 48.375 -69.21875 C 46.125 -70.375 42.847656 -70.953125 38.546875 -70.953125 C 33.648438 -70.953125 29.25 -70.328125 25.34375 -69.078125 C 21.445312 -67.828125 17.398438 -66.203125 13.203125 -64.203125 L 8.546875 -73.796875 C 10.046875 -75.097656 12.570312 -76.648438 16.125 -78.453125 C 19.675781 -80.253906 23.898438 -81.828125 28.796875 -83.171875 C 33.703125 -84.523438 38.753906 -85.203125 43.953125 -85.203125 C 51.648438 -85.203125 57.671875 -84.203125 62.015625 -82.203125 C 66.367188 -80.203125 69.492188 -77 71.390625 -72.59375 C 73.296875 -68.195312 74.25 -62.300781 74.25 -54.90625 L 74.25 -9 L 82.34375 -9 L 82.34375 -0.59375 C 80.34375 -0.09375 77.492188 0.40625 73.796875 0.90625 C 70.097656 1.40625 66.847656 1.65625 64.046875 1.65625 C 60.648438 1.65625 58.375 1.15625 57.21875 0.15625 C 56.070312 -0.84375 55.5 -2.894531 55.5 -6 L 55.5 -10.046875 C 52.800781 -7.046875 49.300781 -4.34375 45 -1.9375 C 40.695312 0.457031 35.847656 1.65625 30.453125 1.65625 C 25.847656 1.65625 21.617188 0.679688 17.765625 -1.265625 C 13.921875 -3.222656 10.847656 -6.078125 8.546875 -9.828125 C 6.242188 -13.578125 5.09375 -18.101562 5.09375 -23.40625 Z M 40.046875 -10.796875 C 42.148438 -10.796875 44.550781 -11.421875 47.25 -12.671875 C 49.945312 -13.921875 52.296875 -15.445312 54.296875 -17.25 L 54.296875 -41.84375 C 45.296875 -41.84375 38.570312 -40.316406 34.125 -37.265625 C 29.675781 -34.222656 27.453125 -30.300781 27.453125 -25.5 C 27.453125 -20.695312 28.578125 -17.046875 30.828125 -14.546875 C 33.078125 -12.046875 36.148438 -10.796875 40.046875 -10.796875 Z M 40.046875 -10.796875 "/></g></g></g><g fill="#fcfcfc" fill-opacity="1"><g transform="translate(203.047698, 135.680341)"><g><path d="M 15.453125 -109.65625 L 4.34375 -111.59375 L 4.34375 -119.703125 L 32.09375 -123 L 32.40625 -123 L 36.453125 -120.15625 L 36.453125 -10.203125 L 47.40625 -9 L 47.40625 0 L 4.953125 0 L 4.953125 -9 L 15.453125 -10.34375 Z M 15.453125 -109.65625 "/></g></g></g><g fill="#fcfcfc" fill-opacity="1"><g transform="translate(254.047718, 135.680341)"><g><path d="M 5.703125 -8.09375 C 19.597656 -16.300781 30.992188 -25.351562 39.890625 -35.25 C 48.796875 -45.144531 53.25 -54.695312 53.25 -63.90625 C 53.25 -68.800781 51.722656 -72.722656 48.671875 -75.671875 C 45.617188 -78.617188 41.34375 -80.09375 35.84375 -80.09375 C 30.644531 -80.09375 26.269531 -79.117188 22.71875 -77.171875 C 19.175781 -75.222656 15.703125 -72.695312 12.296875 -69.59375 L 6.59375 -77.84375 C 8.59375 -80.34375 11.46875 -82.894531 15.21875 -85.5 C 18.96875 -88.101562 23.34375 -90.28125 28.34375 -92.03125 C 33.34375 -93.78125 38.394531 -94.65625 43.5 -94.65625 C 50.800781 -94.65625 56.925781 -93.40625 61.875 -90.90625 C 66.820312 -88.40625 70.492188 -85.101562 72.890625 -81 C 75.296875 -76.894531 76.5 -72.34375 76.5 -67.34375 C 76.5 -57.75 71.898438 -48.097656 62.703125 -38.390625 C 53.503906 -28.691406 41.800781 -19.796875 27.59375 -11.703125 L 71.09375 -15.75 L 76.796875 -28.34375 L 86.25 -26.40625 L 81.90625 0 L 8.84375 0 Z M 5.703125 -8.09375 "/></g></g></g><g fill="#fcfcfc" fill-opacity="1"><g transform="translate(344.797736, 135.680341)"><g><path d="M 13.65625 -109.65625 L 2.84375 -111.59375 L 2.84375 -119.703125 L 30.453125 -123 L 30.75 -123 L 34.796875 -120.15625 L 34.796875 -48.90625 L 34.34375 -40.953125 L 64.953125 -73.046875 L 53.84375 -74.703125 L 53.84375 -83.25 L 93 -83.25 L 93 -74.703125 L 80.84375 -72.75 L 62.40625 -55.046875 L 88.65625 -10.203125 L 96.90625 -9 L 96.90625 0 L 57.296875 0 L 57.296875 -9 L 64.953125 -10.34375 L 47.84375 -42 L 34.34375 -28.34375 L 34.65625 -20.703125 L 34.65625 -10.34375 L 44.09375 -9 L 44.09375 0 L 4.953125 0 L 4.953125 -9 L 13.65625 -10.34375 Z M 13.65625 -109.65625 "/></g></g></g></svg>